PathFileType	4	(X/Y/Z)	C:/Users/opensim2020/Desktop/walking_exp_matlab/subject06_walking11_run.trc	
DataRate	CameraRate	NumFrames	NumMarkers	Units	OrigDataRate	OrigDataStartFrame	OrigNumFrames	
100.00	100.00	7	46	mm	100.00	225	106	
Frame#	Time	LKNE			RKNE			RFRM			RWRA			RWRB			RELB			RUPA			RSHO			LWRA			RFIN			RFHD			CLAV			RASI			RTHI			LSHO			LTHI			RBHD			C7			LTIB			LANK			LTOE			LBHD			RTIB			RBAK			LHEE			RANK			STRN			RHEE			RTOE			T10			LUPA			LFHD			LPSI			RPSI			LASI			LFRM			LWRB			LFIN			LELB			*39			*40			*41			*42			*43			*44			*45			
		X1	Y1	Z1	X2	Y2	Z2	X3	Y3	Z3	X4	Y4	Z4	X5	Y5	Z5	X6	Y6	Z6	X7	Y7	Z7	X8	Y8	Z8	X9	Y9	Z9	X10	Y10	Z10	X11	Y11	Z11	X12	Y12	Z12	X13	Y13	Z13	X14	Y14	Z14	X15	Y15	Z15	X16	Y16	Z16	X17	Y17	Z17	X18	Y18	Z18	X19	Y19	Z19	X20	Y20	Z20	X21	Y21	Z21	X22	Y22	Z22	X23	Y23	Z23	X24	Y24	Z24	X25	Y25	Z25	X26	Y26	Z26	X27	Y27	Z27	X28	Y28	Z28	X29	Y29	Z29	X30	Y30	Z30	X31	Y31	Z31	X32	Y32	Z32	X33	Y33	Z33	X34	Y34	Z34	X35	Y35	Z35	X36	Y36	Z36	X37	Y37	Z37	X38	Y38	Z38	X39	Y39	Z39	X40	Y40	Z40	X41	Y41	Z41	X42	Y42	Z42	X43	Y43	Z43	X44	Y44	Z44	X45	Y45	Z45	X46	Y46	Z46	

40	0.390	106.13223	-193.31114	549.87122	357.44388	-485.48474	548.10181	449.53525	-219.31494	1174.91614	330.21124	-177.45099	1238.42981	342.14691	-144.06963	1183.24377	529.64911	-281.40457	1193.21802	489.04587	-281.59143	1295.50867	352.23181	-234.49150	1444.89075	23.50122	-326.59555	1178.96448	294.40439	-101.01846	1235.37964	262.48749	-174.66000	1670.83521	193.59288	-219.77882	1392.58423	333.36832	-259.65448	975.65656	380.48785	-433.10178	665.71338	57.36297	-306.44260	1445.87891	60.97225	-267.26208	689.84058	267.22021	-307.54120	1623.96350	210.64032	-316.64322	1481.62695	132.03606	-165.59349	299.37341	186.59131	-125.86436	134.29424	207.94788	22.64239	93.81195	138.02174	-315.52356	1628.37988	353.09384	-710.08264	394.08209	314.55612	-393.75104	1332.97266	234.77151	-163.74608	127.13926	312.70673	-862.52875	292.30954	195.32875	-201.48251	1211.72473	271.55789	-895.05554	318.66034	298.80441	-851.32092	128.53133	243.11513	-397.52283	1170.37170	-27.85189	-442.24670	1341.87231	130.96347	-181.58925	1681.04407	150.43425	-413.74799	1035.50232	315.73215	-399.24359	1034.89014	123.62880	-267.89847	980.57397	-42.93747	-439.79752	1181.09558	2.14103	-351.96353	1116.20679	17.97769	-261.07468	1108.75452	-54.34566	-526.28174	1278.57935				194.76459	-278.04236	1721.72095															 
41	0.400	107.40060	-160.29419	544.74799	356.64438	-436.46271	541.30652	452.10785	-186.63902	1172.11975	331.69791	-140.81700	1230.72852	346.10645	-108.51778	1175.36694	531.03156	-248.93787	1194.37793	489.26620	-247.39934	1296.15198	350.91623	-197.46964	1443.06445	23.27567	-284.16467	1174.20081	297.23575	-63.83882	1225.17493	260.48843	-138.98259	1669.52637	192.41357	-182.16206	1390.50867	334.36646	-221.72858	975.18018	379.73471	-387.37613	660.54523	55.11713	-268.48419	1442.52734	60.54219	-233.82912	684.12006	264.49469	-271.49600	1621.47583	208.28380	-279.29553	1479.27222	134.08006	-132.84335	294.37665	188.70221	-93.43518	129.82431	203.38684	55.32395	87.05973	135.21300	-278.59750	1625.42908	352.33884	-664.22363	393.03375	312.55920	-356.96460	1331.53137	238.90059	-129.14226	123.65356	312.50580	-820.91876	297.57523	194.84952	-163.55313	1209.88452	270.69684	-854.32837	324.45679	300.24222	-808.57477	135.35164	242.38094	-360.04404	1167.59204	-31.08134	-402.14316	1335.78308	128.88309	-145.28932	1679.11816	150.02359	-375.27536	1032.83984	315.62985	-361.82425	1032.68237	124.36428	-229.66354	978.27692	-45.31080	-396.18265	1174.31067	1.49724	-308.19562	1110.63562	19.43778	-217.27946	1105.04895	-58.63761	-484.23920	1270.35095				191.86647	-242.35483	1719.29956															 
42	0.410	108.20181	-126.77839	539.28973	356.09711	-385.60587	532.89331	455.20163	-154.08641	1168.22559	333.67444	-104.11859	1220.75940	350.51462	-73.94525	1165.08496	532.14459	-217.65733	1194.89233	488.69473	-214.14854	1296.16833	349.43579	-160.69394	1440.47400	23.02947	-240.58183	1168.03210	301.46524	-26.60315	1211.71936	258.70880	-103.35197	1667.10645	191.34828	-144.57848	1387.41138	335.43796	-184.32771	973.71240	379.22165	-340.79477	653.94110	53.01729	-230.42892	1438.16003	61.65894	-199.55562	678.61884	261.83517	-235.53947	1618.06238	205.91325	-242.26672	1475.95959	136.46170	-103.18945	288.25558	191.18022	-65.44407	123.65273	200.65350	82.54435	77.94987	132.45714	-241.67365	1621.64368	351.90564	-615.46442	390.03412	310.40289	-320.38419	1329.55518	242.68629	-99.06411	118.44966	312.90891	-777.02728	302.15390	194.78326	-126.18076	1207.05164	270.71146	-811.51050	329.43362	302.26773	-762.98022	141.89392	241.79834	-322.65857	1164.44946	-34.61041	-361.49622	1328.48474	127.04169	-108.61493	1676.42529	150.03577	-336.99606	1029.58411	315.74478	-324.34763	1029.52295	124.87336	-191.42856	975.03125	-48.10540	-351.23514	1165.93799	0.98680	-262.69940	1104.74670	20.92586	-172.54535	1100.16736	-63.50614	-441.02185	1260.32568				189.19444	-206.63802	1715.92578															 
43	0.420	108.54240	-93.31570	533.31976	355.76083	-333.22012	523.26074	458.45767	-122.49346	1162.90503	336.61154	-67.02666	1209.21375	355.96735	-39.85645	1152.71167	532.74017	-187.47119	1194.64734	488.15518	-181.79520	1295.93884	347.79562	-124.30000	1437.12305	22.94700	-196.51086	1160.79211	306.66394	10.52041	1195.65820	257.21472	-67.83764	1663.54761	190.41254	-106.99845	1383.30176	336.58652	-147.16896	971.05853	378.89255	-293.59793	646.13031	51.00613	-192.22687	1432.65808	63.68482	-164.78168	673.42511	259.19019	-199.79041	1613.62476	203.38989	-205.14827	1471.64148	138.61166	-76.22895	281.37112	193.32011	-41.81755	116.29124	200.51512	104.74970	67.63537	129.81424	-204.76892	1616.97522	351.70300	-564.84308	386.08209	308.12177	-284.19302	1326.88525	245.11667	-74.37206	111.74172	313.68173	-730.40967	306.15768	194.81384	-88.69016	1202.96021	271.02438	-766.00586	333.70566	305.24603	-714.64893	147.72360	241.31805	-285.64642	1161.13123	-38.44420	-320.10434	1319.82898	125.52168	-72.02923	1672.57471	150.64317	-299.25687	1025.57324	316.35052	-287.33704	1025.40210	125.15721	-153.12415	970.98383	-50.89700	-304.89249	1155.99792	0.82379	-216.89354	1096.66223	22.56833	-126.91051	1094.17761	-68.92596	-396.52936	1248.56885				186.69447	-170.80638	1711.60889															 
44	0.430	108.58878	-59.82717	526.84949	355.68625	-279.20715	512.67889	461.87714	-91.77841	1156.19812	340.33987	-30.59142	1194.97107	362.27597	-6.68033	1138.27014	532.75745	-158.18149	1193.63782	486.82248	-150.14343	1294.82410	346.06699	-88.32753	1432.86414	22.94346	-151.46924	1152.25281	313.00360	46.76161	1176.89368	255.93791	-32.54031	1658.98267	189.65269	-69.42175	1378.15503	337.63065	-109.97344	967.17584	378.91800	-245.51674	637.34723	48.99845	-153.69247	1426.11462	66.19067	-129.03609	668.84845	256.58722	-164.15518	1608.23743	200.87540	-168.25310	1466.43030	139.63405	-51.13063	273.71817	195.01019	-22.25803	107.66898	202.94154	123.36372	56.60459	127.12316	-167.80728	1611.34326	351.90576	-512.46783	381.85025	305.61392	-247.71194	1323.23230	246.68724	-55.30501	103.70004	314.56204	-681.34192	309.65817	195.19379	-50.87246	1197.85461	271.15839	-717.64752	337.13074	308.65466	-665.82727	152.18262	240.97989	-248.61766	1157.12146	-42.74780	-278.02597	1309.76599	124.19285	-35.44028	1667.70837	151.88184	-262.09894	1020.65021	317.22391	-249.67146	1019.99506	125.35454	-114.76873	966.51624	-53.94513	-257.70096	1144.82251	0.55221	-169.61601	1088.00842	24.36305	-80.55104	1087.13867	-74.79347	-350.88800	1235.47742				184.25974	-134.98322	1706.27856															 
45	0.440	108.44582	-26.55227	519.74750	355.89023	-223.50893	501.41034	465.83353	-61.34682	1148.22510	344.50458	4.68659	1179.01746	369.78183	25.49400	1121.86804	532.29602	-129.62485	1191.62427	485.27380	-119.45737	1293.01538	344.44662	-52.97123	1427.65222	22.98061	-105.65496	1142.70752	321.02698	82.22205	1155.88306	254.88475	2.59990	1653.37512	189.12514	-31.94152	1372.01575	338.76581	-72.86996	961.65253	379.23801	-196.22902	627.58301	46.99831	-114.71584	1418.35925	68.89622	-92.23335	664.56824	254.02013	-128.84563	1601.78015	198.16371	-131.17937	1460.13110	139.76529	-27.45407	265.43295	195.73695	-5.88669	98.12534	207.07048	137.92409	43.86242	124.49329	-130.83156	1604.65613	352.34134	-458.20224	377.60779	303.04672	-211.61395	1318.43018	246.46542	-39.81080	94.61890	315.91718	-629.80316	312.78659	195.46127	-12.91516	1191.55371	271.41879	-666.42297	339.55313	315.74664	-611.83411	157.53598	240.76137	-211.67764	1152.15601	-47.39778	-234.80759	1298.24927	123.04569	1.16994	1661.85181	153.63254	-225.19275	1014.60748	318.68585	-212.19101	1013.30530	125.48049	-76.50551	961.56323	-57.08031	-209.44911	1132.33313	-0.09852	-121.95320	1077.69348	26.26010	-33.11034	1079.33630	-80.98927	-304.14935	1221.14722				181.86023	-99.33469	1699.94995															 
46	0.450	108.08012	6.49297	511.79770	356.75375	-166.67555	489.93964	469.72610	-32.64734	1138.87744	350.21561	39.54044	1161.54822	377.67831	55.87274	1104.04041	531.29132	-101.93563	1188.33618	483.72418	-89.09570	1290.25037	343.09674	-18.12512	1421.29907	23.05353	-59.26565	1132.37769	330.87546	116.78353	1133.25720	253.96657	37.49053	1646.83875	188.72264	5.39996	1364.89807	339.63086	-35.49501	954.98969	380.21719	-146.24075	617.18103	45.01003	-75.56016	1409.59314	71.12592	-54.62368	659.96405	251.45308	-93.49694	1594.38538	195.53482	-94.39008	1452.94128	139.05806	-4.81017	256.58145	196.79253	7.66057	88.47099	210.97627	153.66772	36.60753	121.91487	-93.79915	1596.83887	353.09888	-401.64227	373.21701	300.37659	-175.83337	1312.37427	244.80597	-30.09371	84.03098	317.55676	-574.97455	314.27814	196.52411	24.12849	1184.53308	272.51331	-612.28033	340.51013	322.44257	-556.24536	160.80954	240.56870	-174.59827	1146.21521	-52.47306	-190.59071	1285.31189	122.11449	37.74579	1654.89880	155.42036	-188.47713	1007.35553	320.28687	-174.35133	1005.31091	125.34459	-38.67815	955.85254	-60.40022	-159.98532	1119.03381	-0.50572	-73.16194	1066.78210	28.95769	14.54146	1070.95679	-87.43657	-256.22812	1205.75684				179.46854	-63.71357	1692.51953															 
